<?xml version="1.0" encoding="UTF-8"?>
<svg xmlns="http://www.w3.org/2000/svg" xmlns:xlink="http://www.w3.org/1999/xlink" viewBox="0 0 277.88 263.23">
  <defs>
    <style>
      .cls-1 {
        mix-blend-mode: multiply;
        opacity: .15;
      }

      .cls-2, .cls-3 {
        fill: #fff;
      }

      .cls-3, .cls-4 {
        fill-rule: evenodd;
      }

      .cls-5 {
        isolation: isolate;
      }

      .cls-6 {
        clip-path: url(#clippath-1);
      }

      .cls-4 {
        fill: #010101;
      }

      .cls-7 {
        clip-path: url(#clippath);
      }

      .cls-8 {
        fill: none;
      }

      .cls-9 {
        fill: url(#linear-gradient);
      }
    </style>
    <clipPath id="clippath">
      <rect class="cls-8" x="113.45" y="30.32" width="43.21" height="74.79"/>
    </clipPath>
    <clipPath id="clippath-1">
      <path class="cls-8" d="m169.03,96.96c1.64,19.05-12.27,38.11-33.85,39.21h.11v.05h18.91c28.13,0,41.74-28.01,33.59-49.37C175.67,55.07,114.94,42.36,125.89,0c-34.27,56.75,40.14,62.11,43.13,96.96"/>
    </clipPath>
    <linearGradient id="linear-gradient" x1="1177.17" y1="1278.31" x2="1178.85" y2="1278.31" gradientTransform="translate(84563.53 77869.96) rotate(-90) scale(66.04 -66.04)" gradientUnits="userSpaceOnUse">
      <stop offset="0" stop-color="#e5e6e6"/>
      <stop offset=".17" stop-color="#e5e6e6"/>
      <stop offset=".56" stop-color="#eeefef"/>
      <stop offset="1" stop-color="#fff"/>
    </linearGradient>
  </defs>
  <g class="cls-5">
    <g id="Layer_2" data-name="Layer 2">
      <g id="Layer_1-2" data-name="Layer 1">
        <g>
          <g>
            <path class="cls-3" d="m111.74,134.34c-15.76-5.24-24.47-20.68-23.96-35.86V11.25h34.15c-22.66,43.36,24.53,52.22,33.24,79.29,6.28,19.48-7.99,43.92-31.58,45.51-3.92.25-7.71-.32-11.85-1.7M127.83,11.25c1.2,21.75,23.73,36.67,40.33,53.2,11.49-21.67-2-53.19-31.84-53.2h-8.49Z"/>
            <g class="cls-1">
              <g class="cls-7">
                <path class="cls-4" d="m115.92,30.32c-2.3,32.71,45.47,40.27,40.36,74.79-3.46-32-54.51-32.61-40.36-74.79"/>
              </g>
            </g>
            <g class="cls-6">
              <rect class="cls-9" x="58.72" y="-11.12" width="170.13" height="158.45" transform="translate(12.91 158.57) rotate(-60)"/>
            </g>
          </g>
          <g>
            <path class="cls-2" d="m38.33,180.18c3.34,1.49,6.25,3.53,8.74,6.1,2.49,2.59,4.47,5.6,5.91,9.05,1.45,3.46,2.17,7.12,2.17,11s-.72,7.6-2.17,11.04c-1.45,3.43-3.43,6.42-5.91,8.98-2.49,2.55-5.42,4.55-8.78,6.02-3.36,1.46-6.96,2.19-10.78,2.19s-7.41-.73-10.75-2.19c-3.34-1.47-6.26-3.47-8.75-6.02-2.49-2.56-4.45-5.55-5.88-8.98-1.43-3.44-2.14-7.11-2.14-11.04v-34.2h13.69v34.2c0,1.94.37,3.77,1.1,5.49.73,1.74,1.73,3.24,2.97,4.51,1.24,1.29,2.71,2.29,4.4,3.06,1.68.75,3.46,1.13,5.36,1.13s3.75-.38,5.46-1.13c1.7-.76,3.18-1.77,4.42-3.06,1.24-1.27,2.23-2.77,2.97-4.51.74-1.72,1.1-3.55,1.1-5.49s-.37-3.85-1.1-5.6c-.74-1.76-1.73-3.27-2.97-4.54-1.24-1.28-2.72-2.31-4.42-3.06-1.71-.76-3.53-1.14-5.46-1.14h-13.69l13.82-14.04c3.78,0,7.34.74,10.69,2.23"/>
            <path class="cls-2" d="m88.45,234.55c-3.83,0-7.4-.74-10.75-2.23-3.34-1.49-6.27-3.52-8.78-6.11-2.51-2.57-4.49-5.58-5.94-9-1.45-3.44-2.17-7.11-2.17-11.04s.72-7.54,2.17-11c1.45-3.44,3.44-6.48,5.94-9.04,2.52-2.57,5.44-4.61,8.78-6.11,3.35-1.49,6.93-2.22,10.75-2.22s7.35.74,10.71,2.22c3.36,1.5,6.3,3.54,8.82,6.11,2.52,2.57,4.5,5.6,5.95,9.04,1.45,3.45,2.18,7.12,2.18,11s-.72,7.6-2.18,11.04c-1.45,3.43-3.43,6.43-5.95,9-2.52,2.59-5.45,4.62-8.82,6.11-3.36,1.49-6.93,2.23-10.71,2.23m0-42.57c-1.94,0-3.76.38-5.46,1.14-1.71.75-3.18,1.77-4.42,3.05-1.25,1.27-2.24,2.77-2.98,4.49-.74,1.74-1.1,3.57-1.1,5.5s.37,3.86,1.1,5.6c.74,1.75,1.73,3.28,2.98,4.54,1.24,1.29,2.71,2.29,4.42,3.06,1.7.75,3.52,1.13,5.46,1.13s3.68-.38,5.36-1.13c1.68-.76,3.14-1.77,4.39-3.06,1.25-1.27,2.24-2.8,2.98-4.54.74-1.74,1.1-3.6,1.1-5.6s-.37-3.76-1.1-5.5c-.74-1.72-1.73-3.23-2.98-4.49-1.24-1.28-2.71-2.31-4.39-3.05-1.68-.76-3.47-1.14-5.36-1.14"/>
            <path class="cls-2" d="m136,234.55l-13.69-14.18h28.2c.97,0,1.81-.35,2.52-1.03.71-.68,1.08-1.52,1.08-2.51s-.36-1.84-1.08-2.53c-.72-.68-1.56-1.03-2.52-1.03h-12.44c-2.35,0-4.56-.45-6.63-1.38-2.08-.92-3.9-2.18-5.46-3.8-1.57-1.6-2.81-3.49-3.7-5.64-.9-2.16-1.35-4.46-1.35-6.92s.45-4.69,1.35-6.85c.89-2.15,2.13-4.02,3.7-5.65,1.57-1.61,3.38-2.88,5.46-3.83,2.07-.95,4.28-1.41,6.63-1.41h14.52v14.18h-14.52c-.97,0-1.79.35-2.45,1.03-.67.69-1,1.52-1,2.52s.33,1.86,1,2.59c.66.73,1.48,1.1,2.45,1.1h12.44c2.4,0,4.64.46,6.74,1.39s3.93,2.19,5.49,3.8c1.57,1.61,2.8,3.48,3.7,5.61.9,2.12,1.35,4.39,1.35,6.81s-.45,4.75-1.35,6.91c-.9,2.15-2.13,4.03-3.7,5.63-1.56,1.61-3.4,2.88-5.49,3.8-2.1.92-4.34,1.38-6.74,1.38h-14.51Z"/>
            <path class="cls-2" d="m216.64,206.9c1.96,3.73,2.94,7.89,2.94,12.49v14.89h-13.69v-14.89c0-1.7-.29-3.31-.87-4.79-.58-1.49-1.36-2.79-2.35-3.88-.99-1.08-2.15-1.94-3.49-2.58-1.33-.65-2.73-.97-4.21-.97-2.86,0-5.34,1.09-7.47,3.27v24.12h-13.69v-56.75h13.69v13.9l26.69-11.63,5.39,12.91-10.78,4.68c3.27,2.42,5.89,5.49,7.84,9.23"/>
            <path class="cls-2" d="m250.23,177.81c3.83,0,7.42.74,10.79,2.23,3.36,1.49,6.29,3.54,8.78,6.11,2.49,2.57,4.46,5.6,5.91,9.05,1.45,3.45,2.18,7.12,2.18,10.99v28.37h-13.69v-28.37c0-1.93-.37-3.76-1.11-5.5-.74-1.72-1.73-3.22-2.97-4.49-1.24-1.28-2.73-2.31-4.43-3.06-1.7-.76-3.52-1.14-5.46-1.14s-3.68.38-5.35,1.14c-1.68.75-3.14,1.77-4.39,3.06-1.25,1.27-2.24,2.77-2.98,4.49-.73,1.74-1.11,3.57-1.11,5.5s.38,3.78,1.11,5.5c.74,1.72,1.73,3.22,2.98,4.5,1.24,1.28,2.71,2.29,4.39,3.05,1.68.76,3.46,1.14,5.35,1.14h13.83l-13.83,14.18c-3.82-.03-7.41-.81-10.75-2.29-3.34-1.49-6.26-3.51-8.74-6.07-2.49-2.55-4.45-5.54-5.88-8.97-1.43-3.44-2.14-7.11-2.14-11.04s.72-7.54,2.14-10.99c1.43-3.44,3.38-6.48,5.88-9.05,2.48-2.57,5.4-4.61,8.74-6.11,3.34-1.49,6.93-2.23,10.75-2.23"/>
          </g>
          <g>
            <path class="cls-2" d="m90.36,160.59c-1.69,0-3.02-.42-3.94-1.24-.93-.82-1.49-2.02-1.66-3.56l-.04-.39,3.23-.32.06.35c.13.76.4,1.32.79,1.67.39.34.91.51,1.6.51.72,0,1.26-.15,1.61-.44.33-.28.49-.6.49-.96,0-.22-.06-.4-.18-.54-.09-.11-.29-.28-.76-.45-.2-.07-.72-.23-2.01-.56-1.45-.37-2.44-.82-3.05-1.37-.86-.79-1.29-1.76-1.29-2.9,0-.73.2-1.43.61-2.06.41-.64,1-1.13,1.75-1.46.74-.32,1.62-.48,2.64-.48,1.68,0,2.97.39,3.85,1.17.88.78,1.35,1.84,1.39,3.14v.38s-3.26.15-3.26.15l-.05-.34c-.09-.57-.28-.97-.57-1.2-.29-.23-.75-.35-1.38-.35s-1.17.13-1.52.39c-.17.13-.25.28-.25.5,0,.19.08.35.25.5.15.13.64.41,2.19.78,1.26.31,2.22.63,2.85.97.66.35,1.18.85,1.55,1.46.37.61.56,1.38.56,2.27,0,.82-.22,1.59-.66,2.3-.44.72-1.08,1.26-1.88,1.6-.78.34-1.76.51-2.91.51Z"/>
            <rect class="cls-2" x="98.48" y="146.6" width="3.33" height="13.77"/>
            <polygon class="cls-2" points="112.5 160.36 108 152.89 108 160.36 104.85 160.36 104.85 146.6 107.94 146.6 112.52 154.27 112.52 146.6 115.67 146.6 115.67 160.36 112.5 160.36"/>
            <path class="cls-2" d="m124.66,160.58c-1.79,0-3.28-.64-4.43-1.89-1.15-1.25-1.73-2.96-1.73-5.09,0-2.25.58-4.03,1.73-5.3,1.16-1.28,2.7-1.92,4.58-1.92,1.65,0,3,.51,4.04,1.52.62.6,1.09,1.46,1.4,2.57l.11.38-3.3.81-.08-.38c-.13-.59-.39-1.04-.81-1.38-.41-.33-.9-.5-1.49-.5-.83,0-1.48.29-1.99.9-.52.61-.78,1.66-.78,3.11,0,1.54.26,2.64.77,3.26.5.61,1.14.91,1.95.91.58,0,1.07-.19,1.5-.57.43-.39.74-1.02.93-1.89l.09-.41,3.23,1.05-.09.35c-.4,1.49-1.09,2.63-2.03,3.36-.95.74-2.16,1.11-3.6,1.11Z"/>
            <polygon class="cls-2" points="133.09 160.36 133.09 146.6 143.25 146.6 143.25 149.57 136.41 149.57 136.41 151.68 142.77 151.68 142.77 154.64 136.41 154.64 136.41 157.41 143.49 157.41 143.49 160.36 133.09 160.36"/>
            <path class="cls-2" d="m154.4,160.36v-8.93c-.78.61-1.66,1.08-2.63,1.41l-.51.17v-3.07l.26-.09c.59-.2,1.24-.59,1.95-1.15.68-.55,1.16-1.19,1.41-1.9l.09-.26h2.62v13.82h-3.19Z"/>
            <path class="cls-2" d="m165.83,160.59c-1.08,0-1.98-.31-2.66-.91-.68-.6-1.11-1.49-1.3-2.65l-.06-.4,3.13-.36.04.38c.05.4.16.69.33.86.17.17.4.25.69.25.38,0,.69-.18.97-.55.17-.22.37-.71.51-1.77-.53.35-1.14.53-1.81.53-1.1,0-2.06-.44-2.86-1.31-.79-.86-1.18-1.98-1.18-3.34s.42-2.57,1.25-3.45c.84-.88,1.91-1.33,3.19-1.33,1.4,0,2.57.56,3.46,1.67.88,1.08,1.32,2.85,1.32,5.27s-.45,4.25-1.37,5.38c-.93,1.14-2.16,1.72-3.65,1.72Zm.13-11.21c-.33,0-.6.13-.82.4-.24.29-.36.81-.36,1.54s.13,1.29.4,1.61c.25.3.54.45.91.45s.64-.14.89-.43c.26-.31.39-.78.39-1.42,0-.71-.15-1.26-.45-1.63-.28-.35-.59-.52-.95-.52Z"/>
            <path class="cls-2" d="m177.02,160.59c-1.08,0-1.98-.31-2.66-.91-.68-.6-1.11-1.49-1.3-2.65l-.06-.4,3.13-.36.04.38c.05.4.16.69.33.86.17.17.4.25.69.25.38,0,.69-.18.97-.55.17-.22.37-.71.51-1.77-.53.35-1.14.53-1.81.53-1.1,0-2.06-.44-2.86-1.31-.79-.86-1.18-1.98-1.18-3.34s.42-2.57,1.25-3.45c.84-.88,1.91-1.33,3.19-1.33,1.4,0,2.57.56,3.46,1.67.88,1.08,1.32,2.85,1.32,5.27s-.45,4.25-1.37,5.38c-.93,1.14-2.16,1.72-3.65,1.72Zm.13-11.21c-.33,0-.6.13-.82.4-.24.29-.36.81-.36,1.54s.13,1.29.39,1.61c.25.3.54.45.91.45s.64-.14.89-.43c.26-.31.39-.78.39-1.42,0-.71-.15-1.26-.45-1.63-.28-.35-.59-.52-.95-.52Z"/>
            <path class="cls-2" d="m183.85,160.36l.04-.42c.1-.93.39-1.82.88-2.64.48-.82,1.4-1.86,2.79-3.2,1.07-1.02,1.73-1.72,1.96-2.06.29-.45.44-.89.44-1.31,0-.45-.11-.78-.33-1.01-.22-.22-.52-.33-.93-.33s-.71.11-.93.35c-.23.24-.37.7-.41,1.32l-.03.4-3.2-.33.04-.38c.16-1.47.66-2.55,1.5-3.21.82-.65,1.86-.98,3.09-.98,1.35,0,2.43.38,3.21,1.14.79.76,1.19,1.73,1.19,2.86,0,.62-.11,1.23-.33,1.81-.22.56-.56,1.15-1.02,1.76-.3.4-.84.96-1.63,1.7-.75.71-1.23,1.19-1.43,1.41-.02.02-.03.04-.05.05h4.47v3.08h-9.32Z"/>
          </g>
          <g>
            <path class="cls-2" d="m45.43,263.16c-2.08,0-3.69-.58-4.94-1.77-1.2-1.16-1.88-2.96-1.88-4.95.02-4.1,2.9-6.86,7.16-6.86,1.47,0,2.66.32,3.28.62l.54.26-.77,2.6-.73-.33c-.47-.21-1.16-.45-2.35-.45-2.56,0-4.09,1.53-4.09,4.09s1.46,4.11,3.89,4.11c.65,0,1.08-.06,1.35-.12v-2.35h-2.42v-2.64h5.33v6.93l-.47.17c-.89.32-2.28.7-3.9.7Z"/>
            <path class="cls-2" d="m58.98,263.03l-.2-.35c-.18-.32-.4-.96-.87-3.05-.32-1.47-.77-1.73-1.72-1.77h-.73v5.16h-2.95v-13.04l.56-.11c.8-.16,1.96-.26,3.09-.26,1.83,0,3.04.36,3.92,1.16.75.66,1.17,1.65,1.17,2.78,0,1.29-.59,2.42-1.6,3.14.51.52.87,1.25,1.09,2.21.28,1.19.63,2.67.85,3.09l.56,1.04h-3.17Zm-2.66-7.74c1.24,0,1.99-.58,1.99-1.56,0-.41,0-1.5-2.04-1.53-.33,0-.6.01-.81.03v3.05h.87Z"/>
            <path class="cls-2" d="m69.19,263.23c-3.57,0-6.06-2.78-6.06-6.75s2.57-6.96,6.24-6.96,6.06,2.77,6.06,6.73c0,4.82-3.13,6.98-6.24,6.98Zm.11-11.05c-2.3,0-3.12,2.3-3.12,4.27s.97,4.13,3.1,4.13,3.12-2.13,3.12-4.25c0-1.99-.97-4.14-3.1-4.14Z"/>
            <path class="cls-2" d="m82.75,263.23c-3.17,0-4.98-2.11-4.98-5.8v-7.72h2.96v7.76c0,1.41.36,3.1,2.07,3.1.54,0,2.2,0,2.2-3.1v-7.76h2.96v7.65c0,1.93-.5,3.42-1.48,4.44-.9.93-2.19,1.42-3.73,1.42Z"/>
            <path class="cls-2" d="m90.99,263.03v-13.08l.59-.1c.97-.16,1.97-.24,3.07-.24,1.67,0,2.95.39,3.81,1.17.83.72,1.28,1.79,1.28,3.02s-.38,2.27-1.12,3.04c-.92.98-2.39,1.52-4.15,1.52-.19,0-.37,0-.53-.01v4.68h-2.95Zm2.95-7.33c.17.01.36.02.57.02,1.04,0,2.29-.32,2.29-1.84,0-.4,0-1.63-2.11-1.63-.29,0-.54.01-.75.03v3.43Z"/>
            <path class="cls-2" d="m113.04,263.23c-3.57,0-6.06-2.78-6.06-6.75s2.57-6.96,6.24-6.96,6.06,2.77,6.06,6.73c0,4.82-3.13,6.98-6.24,6.98Zm.11-11.05c-2.3,0-3.12,2.3-3.12,4.27s.97,4.13,3.1,4.13,3.12-2.13,3.12-4.25c0-1.99-.97-4.14-3.1-4.14Z"/>
            <polygon class="cls-2" points="121.63 263.03 121.63 249.71 129.46 249.71 129.46 252.4 124.58 252.4 124.58 254.96 129.09 254.96 129.09 257.64 124.58 257.64 124.58 263.03 121.63 263.03"/>
            <path class="cls-2" d="m143.41,263.21c-1.89,0-3.51-.6-4.69-1.75-1.24-1.2-1.9-2.93-1.9-4.99,0-4.1,2.85-6.96,6.93-6.96,1.79,0,2.81.43,3.16.61l.51.27-.77,2.6-.74-.36c-.33-.16-1.04-.42-2.1-.42-2.47,0-3.95,1.57-3.95,4.21s1.41,4.09,3.88,4.09c.81,0,1.67-.17,2.21-.42l.77-.37.68,2.6-.51.25c-.8.4-2.1.64-3.46.64Z"/>
            <path class="cls-2" d="m154.54,263.23c-3.57,0-6.06-2.78-6.06-6.75s2.57-6.96,6.24-6.96,6.06,2.77,6.06,6.73c0,4.82-3.13,6.98-6.24,6.98Zm.11-11.05c-2.3,0-3.12,2.3-3.12,4.27s.97,4.13,3.1,4.13,3.12-2.13,3.12-4.25c0-1.99-.97-4.14-3.1-4.14Z"/>
            <path class="cls-2" d="m173.51,263.03l-.34-5.9c-.02-.4-.04-.83-.07-1.26-.1.28-.2.56-.3.84l-2.27,6.25h-2.16l-2.09-6.16c-.07-.22-.15-.43-.21-.64-.02.37-.04.74-.06,1.1l-.36,5.77h-2.88l.93-13.33h3.12l2.2,6.23c.22.65.41,1.24.58,1.78.17-.54.37-1.13.61-1.78l2.3-6.23h3.11l.83,13.33h-2.92Z"/>
            <path class="cls-2" d="m179.11,263.03v-13.08l.59-.1c.97-.16,1.97-.24,3.07-.24,1.67,0,2.95.39,3.81,1.17.83.72,1.28,1.79,1.28,3.02s-.38,2.27-1.12,3.04c-.92.98-2.39,1.52-4.15,1.52-.19,0-.37,0-.53-.01v4.68h-2.95Zm2.95-7.33c.17.01.36.02.57.02,1.04,0,2.29-.32,2.29-1.84,0-.4,0-1.63-2.11-1.63-.29,0-.54.01-.75.03v3.43Z"/>
            <path class="cls-2" d="m196.43,263.03l-1.27-3.75h-3.21l-1.24,3.75h-3.08l4.53-13.33h2.86l4.55,13.33h-3.13Zm-2.07-6.36l-.81-2.4-.81,2.4h1.63Z"/>
            <path class="cls-2" d="m209.1,263.03l-3.99-6.38c-.32-.51-.61-.98-.87-1.44.01.62.02,1.28.02,2.02v5.8h-2.86v-13.33h2.77l4.03,6.36c.25.4.49.79.72,1.17-.01-.6-.02-1.2-.02-1.84v-5.69h2.86v13.33h-2.65Z"/>
            <rect class="cls-2" x="214.79" y="249.71" width="2.95" height="13.33"/>
            <polygon class="cls-2" points="220.79 263.03 220.79 249.71 228.63 249.71 228.63 252.4 223.73 252.4 223.73 254.76 228.36 254.76 228.36 257.44 223.73 257.44 223.73 260.33 228.89 260.33 228.89 263.03 220.79 263.03"/>
            <path class="cls-2" d="m234.4,263.21c-1.25,0-2.66-.36-3.43-.88l-.43-.29.8-2.67.78.48c.69.42,1.58.67,2.39.67.54,0,1.79-.13,1.79-1.33,0-.56-.13-1.07-1.79-1.71-2.43-.86-3.61-2.18-3.61-4.04,0-2.28,1.92-3.94,4.56-3.94,1.56,0,2.54.42,2.98.68l.51.29-.88,2.6-.74-.4c-.4-.22-1.06-.48-1.93-.48-1.14,0-1.54.56-1.54,1.08,0,.62.28,1.01,1.92,1.64,1.63.63,3.49,1.67,3.49,4.16,0,2.06-1.51,4.13-4.88,4.13Z"/>
          </g>
        </g>
      </g>
    </g>
  </g>
</svg>